<?xml version="1.0" encoding="utf-8"?>
<!-- Generator: Adobe Illustrator 22.1.0, SVG Export Plug-In . SVG Version: 6.00 Build 0)  -->
<svg version="1.1" id="Layer_1" xmlns="http://www.w3.org/2000/svg" xmlns:xlink="http://www.w3.org/1999/xlink" x="0px" y="0px"
	 viewBox="0 0 400 400" style="enable-background:new 0 0 400 400;" xml:space="preserve">
<style type="text/css">
	.st0{fill-rule:evenodd;clip-rule:evenodd;fill:#1A1A1A;}
	.st1{fill-rule:evenodd;clip-rule:evenodd;fill:#DB0000;}
	.st2{fill-rule:evenodd;clip-rule:evenodd;fill:#E6E6E6;}
	.st3{fill:#DB0000;}
</style>
<path class="st0" d="M302.7,195.3c6.2-29.1,0.1-60.3-18.4-85.2l-22.8,21.4c19.4,29.1,16.3,68.7-9.4,94.4
	c-29.2,29.2-76.6,29.2-105.8,0c-25.4-25.4-28.7-64.6-9.9-93.6l-22.8-21.5c-18,24.8-23.9,55.6-17.8,84.4
	c8.2,38,77.5,117.4,103.4,151.8C225.2,312.6,294.5,233.3,302.7,195.3"/>
<path class="st1" d="M275.9,100c-0.6-0.6-1.2-1.3-1.9-1.9c-41.3-41.3-108.3-41.3-149.6,0c-0.9,0.9-1.7,1.7-2.5,2.6l22.6,21.2
	c0.6-0.7,1.2-1.3,1.9-1.9c29.2-29.2,76.6-29.2,105.8,0c0.4,0.4,0.8,0.8,1.2,1.2L275.9,100z"/>
<path class="st1" d="M286.1,90.5c-0.7-0.7-1.4-1.5-2.2-2.2c-46.8-46.8-122.6-46.8-169.4,0c-1,1-1.9,1.9-2.8,2.9l-7.5-7L89.7,70.5
	c1.1-1.2,2.3-2.4,3.5-3.6c58.6-58.6,153.5-58.6,212.1,0c1,1,1.9,1.9,2.8,2.9l-15.3,14.3L286.1,90.5z"/>
<path class="st2" d="M198.7,363.8c42,0,76.1,3.1,76.1,6.9c0,3.8-34.1,6.9-76.1,6.9c-42,0-76.1-3.1-76.1-6.9
	C122.6,366.9,156.7,363.8,198.7,363.8"/>
<path class="st3" d="M161.5,219.5v-23.7c4.3,3.6,9,6.3,14,8.1c5,1.8,10.1,2.7,15.2,2.7c3,0,5.6-0.3,7.9-0.8c2.2-0.6,4.1-1.3,5.6-2.3
	c1.5-1,2.6-2.1,3.4-3.4c0.8-1.3,1.1-2.7,1.1-4.3c0-2.1-0.6-3.9-1.8-5.5c-1.2-1.6-2.8-3.2-4.8-4.5c-2-1.4-4.5-2.7-7.3-4
	c-2.8-1.3-5.8-2.6-9.1-3.9c-8.3-3.4-14.5-7.6-18.5-12.6c-4.1-5-6.1-11-6.1-18c0-5.5,1.1-10.3,3.3-14.2c2.2-4,5.2-7.2,9.1-9.8
	c3.8-2.5,8.3-4.4,13.3-5.6c5-1.2,10.3-1.8,16-1.8c5.5,0,10.4,0.4,14.7,1c4.2,0.7,8.2,1.7,11.8,3.1V142c-1.8-1.2-3.7-2.3-5.8-3.3
	c-2.1-0.9-4.3-1.7-6.5-2.3c-2.2-0.6-4.4-1.1-6.6-1.4c-2.2-0.3-4.3-0.4-6.2-0.4c-2.7,0-5.2,0.3-7.4,0.8c-2.2,0.5-4.1,1.3-5.6,2.2
	c-1.5,0.9-2.7,2-3.6,3.4c-0.8,1.3-1.2,2.8-1.2,4.4c0,1.8,0.5,3.4,1.4,4.8c0.9,1.4,2.3,2.7,4,4c1.7,1.2,3.8,2.5,6.3,3.7
	c2.4,1.2,5.2,2.4,8.3,3.7c4.2,1.8,8,3.7,11.4,5.6c3.4,2,6.3,4.3,8.7,6.8c2.4,2.5,4.3,5.4,5.6,8.6c1.3,3.2,1.9,7,1.9,11.3
	c0,5.9-1.1,10.9-3.4,14.9c-2.2,4-5.3,7.3-9.1,9.7c-3.8,2.5-8.3,4.3-13.4,5.4c-5.1,1.1-10.5,1.6-16.2,1.6c-5.8,0-11.3-0.5-16.6-1.5
	C169.9,223,165.3,221.5,161.5,219.5"/>
</svg>
